<svg width="24" height="24" viewBox="0 0 24 24" fill="none" xmlns="http://www.w3.org/2000/svg">
<rect width="24" height="24" rx="12" fill="url(#paint0_linear_240_3)"/>
<path d="M5.5 15.9652V11.9658C5.5 10.841 6.33162 9.92932 7.35721 9.92932V18C6.33162 18 5.5 17.0884 5.5 15.9652Z" fill="white"/>
<path d="M11.1135 4V18H9.25624V7.46255C9.22619 7.01377 9.09866 6.36523 8.63428 6.04549L11.1135 4Z" fill="white"/>
<path d="M13.0117 18V9.92932C14.0373 9.92932 14.8689 10.841 14.8689 11.9658V17.9987L13.0117 18Z" fill="white"/>
<path d="M16.7678 18V9.92932C17.7937 9.92932 18.625 10.841 18.625 11.9658V17.9987L16.7678 18Z" fill="white"/>
<defs>
<linearGradient id="paint0_linear_240_3" x1="21" y1="1.5" x2="4.5" y2="22" gradientUnits="userSpaceOnUse">
<stop stop-color="#00D4FF"/>
<stop offset="1" stop-color="#01242C"/>
</linearGradient>
</defs>
</svg>
