<svg xmlns="http://www.w3.org/2000/svg" width="24" height="24" viewBox="0 0 24 24"><g id="Layer_2" data-name="Layer 2"><g id="Layer_1-2" data-name="Layer 1"><rect width="24" height="24" fill="none"/><path d="M4.77,5h3.6a1.88,1.88,0,0,1,2,1.79h0a1.88,1.88,0,0,1-2,1.79H4.77a1.88,1.88,0,0,1-2-1.79h0A1.88,1.88,0,0,1,4.77,5Z" fill="none" stroke="#fff" stroke-linecap="round" stroke-miterlimit="10" stroke-width="1.5"/><path d="M15.63,5h3.6a1.88,1.88,0,0,1,2,1.79h0a1.88,1.88,0,0,1-2,1.79h-3.6a1.88,1.88,0,0,1-2-1.79h0A1.88,1.88,0,0,1,15.63,5Z" fill="none" stroke="#fff" stroke-linecap="round" stroke-miterlimit="10" stroke-width="1.5"/><line x1="11.57" y1="14.65" x2="14.31" y2="18.96" fill="none" stroke="#fff" stroke-miterlimit="10" stroke-width="1.5"/><polygon points="10.62 17.2 11.95 15.26 14.28 14.87 9.69 11.7 10.62 17.2" fill="#fff"/></g></g></svg>