<svg width="24" height="24" viewBox="0 0 24 24" fill="none" xmlns="http://www.w3.org/2000/svg">
<g clip-path="url(#clip0_430_2)">
<path d="M3 5C3 4.46957 3.21071 3.96086 3.58579 3.58579C3.96086 3.21071 4.46957 3 5 3H19C19.5304 3 20.0391 3.21071 20.4142 3.58579C20.7893 3.96086 21 4.46957 21 5V19C21 19.5304 20.7893 20.0391 20.4142 20.4142C20.0391 20.7893 19.5304 21 19 21H5C4.46957 21 3.96086 20.7893 3.58579 20.4142C3.21071 20.0391 3 19.5304 3 19V5Z" stroke="url(#paint0_linear_430_2)" stroke-width="1.5" stroke-linecap="round" stroke-linejoin="round"/>
<path d="M10 16V8" stroke="url(#paint1_linear_430_2)" stroke-width="1.5" stroke-linecap="round" stroke-linejoin="round"/>
<path d="M14 16V8" stroke="url(#paint2_linear_430_2)" stroke-width="1.5" stroke-linecap="round" stroke-linejoin="round"/>
<path d="M10 12H14" stroke="url(#paint3_linear_430_2)" stroke-width="1.5" stroke-linecap="round" stroke-linejoin="round"/>
</g>
<defs>
<linearGradient id="paint0_linear_430_2" x1="12" y1="3" x2="12" y2="21" gradientUnits="userSpaceOnUse">
<stop stop-color="white"/>
<stop offset="1" stop-color="#E8F0EF"/>
</linearGradient>
<linearGradient id="paint1_linear_430_2" x1="10.5" y1="8" x2="10.5" y2="16" gradientUnits="userSpaceOnUse">
<stop stop-color="white"/>
<stop offset="1" stop-color="#E8F0EF"/>
</linearGradient>
<linearGradient id="paint2_linear_430_2" x1="14.5" y1="8" x2="14.5" y2="16" gradientUnits="userSpaceOnUse">
<stop stop-color="white"/>
<stop offset="1" stop-color="#E8F0EF"/>
</linearGradient>
<linearGradient id="paint3_linear_430_2" x1="12" y1="12" x2="12" y2="13" gradientUnits="userSpaceOnUse">
<stop stop-color="white"/>
<stop offset="1" stop-color="#E8F0EF"/>
</linearGradient>
<clipPath id="clip0_430_2">
<rect width="24" height="24" fill="white"/>
</clipPath>
</defs>
</svg>
