<svg xmlns="http://www.w3.org/2000/svg" viewBox="0 0 24 24"><g id="Layer_2" data-name="Layer 2"><g id="Layer_1-2" data-name="Layer 1"><rect width="24" height="24" fill="none"/><rect x="5.06" y="4.84" width="13.88" height="9.25" rx="1.96" fill="none" stroke="#fff" stroke-miterlimit="10" stroke-width="1.5"/><path d="M9.61,14.09,14.75,9a.73.73,0,0,1,1,0l3.18,2.77" fill="none" stroke="#fff" stroke-miterlimit="10" stroke-width="1.5"/><rect x="8.76" y="7.62" width="1.85" height="1.85" rx="0.92" fill="none" stroke="#fff" stroke-miterlimit="10"/><path d="M23.94,5h0a1.8,1.8,0,0,0-1.89,1.7v5.6A1.8,1.8,0,0,0,23.94,14h0" fill="none" stroke="#fff" stroke-miterlimit="10" stroke-width="1.5"/><path d="M.06,5h0A1.8,1.8,0,0,1,2,6.67v5.6A1.8,1.8,0,0,1,.06,14h0" fill="none" stroke="#fff" stroke-miterlimit="10" stroke-width="1.5"/><circle cx="7.49" cy="18.71" r="0.79" fill="none" stroke="#fff" stroke-miterlimit="10"/><circle cx="12" cy="18.71" r="0.79" fill="none" stroke="#fff" stroke-miterlimit="10"/><circle cx="16.51" cy="18.71" r="0.79" fill="none" stroke="#fff" stroke-miterlimit="10"/></g></g></svg>